<?xml version="1.0" encoding="iso-8859-1"?>
<!-- Generator: Adobe Illustrator 18.1.1, SVG Export Plug-In . SVG Version: 6.00 Build 0)  -->
<svg xmlns="http://www.w3.org/2000/svg" xmlns:xlink="http://www.w3.org/1999/xlink" version="1.1" id="Capa_1" x="0px" y="0px" viewBox="0 0 18.135 18.135" style="enable-background:new 0 0 18.135 18.135;" xml:space="preserve" width="512px" height="512px">
<g>
	<path d="M16.28,0H1.854C0.831,0,0,0.83,0,1.855v14.426c0,1.024,0.83,1.854,1.854,1.854H16.28   c1.024,0,1.854-0.827,1.854-1.854V1.855C18.136,0.83,17.306,0,16.28,0z M3.897,2.104c1.003,0,1.815,0.744,1.815,1.66   c0,0.914-0.812,1.658-1.815,1.658S2.082,4.678,2.082,3.764C2.08,2.848,2.895,2.104,3.897,2.104z M5.894,16.033H1.9V6.695h3.994   V16.033z M16.036,15.987h-3.033v-4.979c0-0.989-0.662-1.856-1.722-1.856c-1.061,0-1.448,0.808-1.448,1.565c0,1.021,0,5.271,0,5.271   H6.799V6.74h3.034v1.369c0.439-0.619,1.555-1.398,2.742-1.398c1.479,0,1.783,0.287,2.393,0.895   c1.157,1.158,1.049,2.776,1.066,3.269h0.003L16.036,15.987z" fill="#ff5f00"/>
</g>
<g>
</g>
<g>
</g>
<g>
</g>
<g>
</g>
<g>
</g>
<g>
</g>
<g>
</g>
<g>
</g>
<g>
</g>
<g>
</g>
<g>
</g>
<g>
</g>
<g>
</g>
<g>
</g>
<g>
</g>
</svg>
